<svg xmlns="http://www.w3.org/2000/svg" width="300" height="300"><path d="M0 0 C5.75058167 1.80331829 9.72300135 4.89066222 13 10 C14.05708102 12.93133609 14.57588218 15.88788342 15.08203125 18.95703125 C15.24024857 19.82632767 15.39846588 20.69562408 15.56147766 21.59126282 C16.06332099 24.39080644 16.53473614 27.19416118 17 30 C17.15708435 30.9253656 17.3141687 31.8507312 17.47601318 32.80413818 C18.43521121 38.46793302 19.34966273 44.13784897 20.23754883 49.81323242 C20.6933032 52.72457057 21.15578327 55.63478502 21.61914062 58.54492188 C21.91705381 60.42962635 22.21459383 62.31438985 22.51171875 64.19921875 C22.6471257 65.05247238 22.78253265 65.90572601 22.92204285 66.78483582 C27.04657229 93.24222307 24.77620657 115.19435817 12.5 139.3125 C11.98099121 140.34213867 11.46198242 141.37177734 10.92724609 142.43261719 C6.81010152 150.54300791 2.49845047 158.53944568 -1.89355469 166.50366211 C-5.4333613 172.92474802 -8.82100462 179.39103591 -12 186 C-10.9275 186.12375 -9.855 186.2475 -8.75 186.375 C-3.08 187.32 -3.08 187.32 -1 189 C0.35886203 193.96613355 -0.40581652 197.96125031 -1.73046875 202.8125 C-1.92216141 203.5444458 -2.11385406 204.2763916 -2.31135559 205.03051758 C-2.71833785 206.57172398 -3.1313532 208.11134849 -3.55004883 209.64941406 C-4.18439873 211.98856413 -4.7936136 214.33325343 -5.40039062 216.6796875 C-5.80058972 218.18269016 -6.20223534 219.68530856 -6.60546875 221.1875 C-6.78482468 221.88141846 -6.9641806 222.57533691 -7.14897156 223.2902832 C-8.42940881 227.9116177 -10.19494408 231.19231887 -13 235 C-20.36280662 234.39987852 -27.16801331 232.80897365 -34.28515625 230.8671875 C-35.45848007 230.55226349 -36.63180389 230.23733948 -37.84068298 229.91287231 C-40.32341659 229.24514435 -42.80530084 228.57425122 -45.28637695 227.90039062 C-48.99702302 226.89278 -52.71011997 225.89469567 -56.42382812 224.8984375 C-68.22644334 221.72169231 -80.00544814 218.4694231 -91.74609375 215.0703125 C-92.77074234 214.77526825 -93.79539093 214.480224 -94.85108948 214.17623901 C-95.7812236 213.9042569 -96.71135773 213.63227478 -97.66967773 213.35205078 C-98.89375587 212.99519699 -98.89375587 212.99519699 -100.14256287 212.63113403 C-102 212 -102 212 -103 211 C-103.25061794 205.536751 -102.73717027 200.97589537 -101.35546875 195.6484375 C-101.18501541 194.98590973 -101.01456207 194.32338196 -100.83894348 193.64077759 C-100.47956724 192.25311754 -100.1154749 190.86667085 -99.74682617 189.48144531 C-99.18779357 187.37610562 -98.64657242 185.26675836 -98.10742188 183.15625 C-94.9577641 171.07437703 -94.9577641 171.07437703 -92 166 C-88.60679902 164.6949227 -86.4165497 165.06425709 -83 166 C-82.90501221 165.25016846 -82.81002441 164.50033691 -82.7121582 163.7277832 C-79.74632765 140.82312266 -76.53817836 124.25080332 -58.3515625 108.84765625 C-48.56947823 100.37227452 -45.37794855 92.26783591 -42.4296875 79.734375 C-40.28248504 70.62296157 -38.03087276 63.36050866 -30 58 C-27.35541621 56.67770811 -25.32238699 56.90322806 -22.375 56.9375 C-20.87066406 56.95103516 -20.87066406 56.95103516 -19.3359375 56.96484375 C-18.56507813 56.97644531 -17.79421875 56.98804688 -17 57 C-17.08564209 56.40574219 -17.17128418 55.81148437 -17.25952148 55.19921875 C-17.65294289 52.4662549 -18.04522846 49.73312912 -18.4375 47 C-18.57220703 46.06542969 -18.70691406 45.13085938 -18.84570312 44.16796875 C-19.23590872 41.44604679 -19.61983809 38.72334166 -20 36 C-20.10223877 35.27828613 -20.20447754 34.55657227 -20.30981445 33.81298828 C-20.93689537 29.1558141 -21.24469714 24.56695809 -21.3125 19.875 C-21.35600586 18.85986328 -21.35600586 18.85986328 -21.40039062 17.82421875 C-21.47688752 11.73977342 -19.1731301 8.62721699 -15.4296875 4.1015625 C-10.63605338 -0.45118548 -6.46164693 -1.1748449 0 0 Z M-9 13 C-12.88854917 20.77709834 -8.3984325 37.19691544 -7.32543945 45.86669922 C-7.05927051 48.02620171 -6.80369043 50.18679324 -6.54882812 52.34765625 C-5.62525645 60.47547438 -5.62525645 60.47547438 -3.80859375 68.4375 C-2.2025564 75.51337472 -4.22123316 82.6057941 -6.03125 89.5078125 C-6.22722778 90.27753387 -6.42320557 91.04725525 -6.62512207 91.84030151 C-7.24438353 94.27003666 -7.87150812 96.69763758 -8.5 99.125 C-9.12764004 101.55970221 -9.75342573 103.9948325 -10.37487793 106.43112183 C-10.75951273 107.93805614 -11.14771399 109.44408646 -11.54016113 110.94900513 C-12.65073222 115.28854078 -13.44436878 119.55422296 -14 124 C-17.96 123.34 -21.92 122.68 -26 122 C-25.63648438 120.7625 -25.27296875 119.525 -24.8984375 118.25 C-21.97979359 108.22853957 -19.20059544 98.17790568 -16.625 88.0625 C-16.36251465 87.05123047 -16.1000293 86.03996094 -15.82958984 84.99804688 C-14.03303971 78.08885589 -14.03303971 78.08885589 -14 71 C-16.97276147 68.29748957 -18.78774291 68.01043887 -22.8125 67.8125 C-23.864375 67.874375 -24.91625 67.93625 -26 68 C-29.04066532 73.99090909 -30.74745888 79.82969132 -32.1796875 86.37744141 C-35.24994843 100.04128948 -39.21082064 107.32768495 -50 116 C-51.90433239 118.00474265 -53.6723795 120.07116541 -55.44921875 122.1875 C-56.53363658 123.45493041 -57.66630198 124.68192954 -58.83203125 125.875 C-68.61746233 136.09305014 -71.06424125 152.26379831 -71.078125 166.078125 C-71.05234375 167.04234375 -71.0265625 168.0065625 -71 169 C-65.63252296 171.08996443 -60.30983986 172.84607241 -54.73828125 174.296875 C-53.98459763 174.49476624 -53.230914 174.69265747 -52.45439148 174.89654541 C-50.87605182 175.30887761 -49.29708772 175.71882642 -47.7175293 176.12646484 C-45.30543855 176.75183077 -42.89797041 177.39325652 -40.49023438 178.03515625 C-38.94817387 178.43588687 -37.40586423 178.83566033 -35.86328125 179.234375 C-34.79126213 179.5232962 -34.79126213 179.5232962 -33.69758606 179.8180542 C-28.27785319 181.21505473 -28.27785319 181.21505473 -23 180 C-20.9688687 177.35696731 -20.9688687 177.35696731 -19.3203125 173.921875 C-18.99043335 173.29126663 -18.6605542 172.66065826 -18.32067871 172.01094055 C-17.2384559 169.93227048 -16.18170668 167.84174082 -15.125 165.75 C-14.37961393 164.3044716 -13.63268812 162.85973619 -12.88427734 161.41577148 C-11.34222265 158.4345441 -9.81019559 155.44846129 -8.28515625 152.45849609 C-6.10941858 148.20029638 -3.88855845 143.96702795 -1.65625 139.73828125 C-0.63678455 137.79925336 0.38165753 135.85969315 1.3994751 133.9197998 C2.04263046 132.69529766 2.68725089 131.47156374 3.33343506 130.24865723 C15.74915144 106.69905669 13.9997071 84.68885126 9.75 59 C9.4451269 57.07054698 9.14173994 55.14085855 8.83984375 53.2109375 C8.08703975 48.44056283 7.29939822 43.67693793 6.49194336 38.91552734 C6.15379569 36.91147797 5.82091433 34.90653512 5.49243164 32.90087891 C4.99146047 29.84840563 4.47431405 26.7990785 3.953125 23.75 C3.80204285 22.81470459 3.65096069 21.87940918 3.49530029 20.91577148 C3.34377502 20.05153564 3.19224976 19.1872998 3.03613281 18.296875 C2.90813293 17.53729492 2.78013306 16.77771484 2.64825439 15.99511719 C1.86019124 13.5697139 1.05709963 12.50317056 -1 11 C-4.75482645 11 -5.9681144 11.11813998 -9 13 Z M-84 179 C-84.82134989 181.49738858 -85.63215748 183.99744805 -86.4375 186.5 C-86.78264648 187.54414063 -86.78264648 187.54414063 -87.13476562 188.609375 C-88.67049584 193.41687828 -89.5077359 197.97551131 -90 203 C-75.14764399 207.49208638 -60.2042064 211.63339403 -45.22128296 215.66564941 C-43.15293083 216.22300507 -41.08524261 216.78283019 -39.01821899 217.34509277 C-36.07914248 218.14355408 -33.13766353 218.93245356 -30.1953125 219.71875 C-29.29734451 219.9642157 -28.39937653 220.2096814 -27.47419739 220.46258545 C-26.65013901 220.68053772 -25.82608063 220.89848999 -24.97705078 221.12304688 C-24.25446075 221.31733276 -23.53187073 221.51161865 -22.78738403 221.71179199 C-20.90196347 222.19427098 -20.90196347 222.19427098 -19 221 C-18.15214243 218.58673112 -18.15214243 218.58673112 -17.4921875 215.65234375 C-17.22792969 214.57275391 -16.96367187 213.49316406 -16.69140625 212.38085938 C-16.42199219 211.24455078 -16.15257812 210.10824219 -15.875 208.9375 C-15.45927734 207.22723633 -15.45927734 207.22723633 -15.03515625 205.48242188 C-14.3494019 202.656641 -13.67138398 199.82922344 -13 197 C-19.48776263 195.23914019 -25.97583755 193.47943443 -32.46411133 191.72045898 C-34.66242231 191.12435847 -36.86066669 190.52801225 -39.05883789 189.93139648 C-45.37542884 188.2170786 -51.69335612 186.50784818 -58.01324463 184.8057251 C-59.97364845 184.27687477 -61.93358583 183.74629171 -63.89300537 183.21380615 C-66.53550961 182.49593927 -69.1796086 181.78428151 -71.82421875 181.07421875 C-72.59981644 180.86199173 -73.37541412 180.64976471 -74.17451477 180.43110657 C-77.60608608 179.51639672 -80.4193314 179 -84 179 Z " fill="#000000" transform="translate(264,54)"></path><path d="M0 0 C4.940258 2.59734595 8.1871751 5.99511904 9.9453125 11.26953125 C11.00778081 25.96019889 8.6757149 40.71451533 6.9453125 55.26953125 C7.61135498 55.31561523 8.27739746 55.36169922 8.96362305 55.40917969 C16.04029734 55.98918213 20.91411587 56.9276432 25.9453125 62.26953125 C29.16569677 67.89228774 30.67894854 74.07234842 32.15625 80.328125 C35.26544469 93.08841714 39.15591163 100.52484905 48.9453125 109.26953125 C61.38028865 121.17849318 67.62074005 132.57216147 70.1953125 149.64453125 C70.36804688 150.71058594 70.54078125 151.77664062 70.71875 152.875 C71.38521705 157.08008973 71.9453125 161.00213866 71.9453125 165.26953125 C72.86763672 165.18251953 72.86763672 165.18251953 73.80859375 165.09375 C74.61683594 165.04863281 75.42507812 165.00351563 76.2578125 164.95703125 C77.45857422 164.87001953 77.45857422 164.87001953 78.68359375 164.78125 C80.9453125 165.26953125 80.9453125 165.26953125 82.44311523 167.30200195 C84.23423019 170.84027634 85.26825628 174.41633744 86.2421875 178.23828125 C86.44007874 178.99620972 86.63796997 179.75413818 86.84185791 180.53503418 C87.25587264 182.13087425 87.66577289 183.72778681 88.07177734 185.32568359 C88.69420815 187.76520292 89.33650157 190.19890146 89.98046875 192.6328125 C90.3814211 194.18849001 90.78120077 195.74447034 91.1796875 197.30078125 C91.37230164 198.02487183 91.56491577 198.7489624 91.7633667 199.49499512 C93.63886375 207.01780004 93.63886375 207.01780004 91.9453125 210.26953125 C84.80470491 215.17444205 74.92558375 216.61740362 66.6328125 218.78125 C65.05285231 219.19864469 63.4730205 219.61652557 61.89331055 220.03486633 C58.59647413 220.90612619 55.29829601 221.77204588 51.99902344 222.6340332 C47.7904573 223.73396465 43.58531976 224.84640133 39.38108826 225.96277142 C36.12394051 226.82631145 32.86516476 227.68357003 29.60586548 228.53894997 C28.0553913 228.94656759 26.50539181 229.35599563 24.9559021 229.76733971 C7.92077013 234.28106535 7.92077013 234.28106535 1.9453125 234.26953125 C-1.31033529 231.68280165 -1.95866532 227.83811686 -3.02734375 223.921875 C-3.54071289 222.05305664 -3.54071289 222.05305664 -4.06445312 220.14648438 C-4.32415894 219.17400757 -4.32415894 219.17400757 -4.58911133 218.18188477 C-5.1097484 216.23485133 -5.64445195 214.29213303 -6.18164062 212.34960938 C-8.16894086 205.03529264 -9.86438773 197.7562739 -11.0546875 190.26953125 C-7.12335632 186.57646256 -4.34666606 185.86168433 0.9453125 185.26953125 C-3.57463088 176.10999892 -8.20251968 167.01145137 -12.9296875 157.95703125 C-13.43927002 156.97855225 -13.94885254 156.00007324 -14.47387695 154.99194336 C-16.9021701 150.34055953 -19.35206497 145.704507 -21.87109375 141.1015625 C-36.25525787 114.69638453 -37.24969045 91.94401978 -32.8671875 62.64453125 C-32.54433453 60.45208164 -32.2215812 58.25961736 -31.89892578 56.06713867 C-31.11126473 50.74909255 -30.30637877 45.43385695 -29.49139404 40.11993408 C-29.09511896 37.53342914 -28.70351683 34.94626398 -28.31298828 32.35888672 C-27.71574358 28.42808704 -27.07983069 24.50446294 -26.4296875 20.58203125 C-26.26057861 19.48745605 -26.09146973 18.39288086 -25.91723633 17.26513672 C-24.54576638 9.43307053 -22.33716697 5.71530027 -15.8671875 0.89453125 C-10.89561889 -1.68331914 -5.26165945 -1.87058996 0 0 Z M-12.0546875 12.26953125 C-12.86044328 15.19719267 -13.48096507 17.9970622 -14.01171875 20.9765625 C-14.1789595 21.86390579 -14.34620026 22.75124908 -14.51850891 23.66548157 C-16.2707778 33.11024127 -17.80757361 42.59277363 -19.29223633 52.08276367 C-19.7479907 54.99410182 -20.21047077 57.90431627 -20.67382812 60.81445312 C-20.97174131 62.6991576 -21.26928133 64.5839211 -21.56640625 66.46875 C-21.7018132 67.32200363 -21.83722015 68.17525726 -21.97673035 69.05436707 C-26.17109405 95.9597162 -21.98184963 115.22985586 -9.4921875 139.14453125 C-8.78551742 140.50546786 -8.07897599 141.86647128 -7.37255859 143.22753906 C2.13180416 162.13140107 2.13180416 162.13140107 12.9453125 180.26953125 C22.45125509 179.73773027 31.24568257 177.26593083 40.3828125 174.76953125 C41.94968263 174.3482616 43.51673883 173.92768335 45.08398438 173.5078125 C52.5578596 171.53459796 52.5578596 171.53459796 59.9453125 169.26953125 C60.13298026 162.27529831 59.47619997 155.72639943 58.3203125 148.83203125 C58.17980469 147.85943359 58.03929688 146.88683594 57.89453125 145.88476562 C56.13747454 135.36351004 51.22661099 127.83091968 43.5078125 120.64453125 C42.36272139 119.54099129 41.21947858 118.43553012 40.078125 117.328125 C39.53704102 116.80589355 38.99595703 116.28366211 38.43847656 115.74560547 C35.94232724 113.27802555 33.66554436 110.63925037 31.41015625 107.953125 C29.94497043 106.18627936 29.94497043 106.18627936 27.98095703 104.58789062 C25.41053868 101.66048685 24.83512703 99.26605816 23.91015625 95.4921875 C23.7453627 94.84382431 23.58056915 94.19546112 23.41078186 93.52745056 C22.88820127 91.46536197 22.38415528 89.39937692 21.8828125 87.33203125 C21.37589199 85.26888167 20.86483056 83.20704072 20.34413147 81.14732361 C19.87207794 79.27647582 19.41404492 77.40210684 18.95678711 75.52758789 C17.98178041 72.38699788 16.7642318 69.99324795 14.9453125 67.26953125 C13.50669956 67.35699409 12.06933742 67.46518473 10.6328125 67.58203125 C9.83230469 67.64003906 9.03179687 67.69804688 8.20703125 67.7578125 C5.93621066 68.15844029 5.93621066 68.15844029 4.08984375 69.3125 C1.68919376 73.41736568 3.96753989 79.59947056 5.06860352 84.03320312 C5.52354918 85.76961567 5.98398875 87.50459583 6.44921875 89.23828125 C6.6919603 90.15919556 6.93470184 91.08010986 7.18479919 92.02893066 C7.95429577 94.94377063 8.73093217 97.85665157 9.5078125 100.76953125 C10.03367766 102.75638488 10.55907306 104.74336291 11.08398438 106.73046875 C12.3656655 111.57827845 13.6537494 116.4243454 14.9453125 121.26953125 C9.5003125 121.76453125 9.5003125 121.76453125 3.9453125 122.26953125 C2.39199284 116.41758734 0.84389874 110.56429489 -0.69946289 104.7097168 C-1.22473637 102.72008376 -1.7514119 100.7308203 -2.27954102 98.74194336 C-3.0403538 95.87580887 -3.79604067 93.00836365 -4.55078125 90.140625 C-4.78623154 89.25805527 -5.02168182 88.37548553 -5.26426697 87.46617126 C-7.25131671 79.88142318 -8.44631952 73.72576984 -6.75390625 65.91796875 C-5.13009278 58.00931739 -4.03794287 50.10375216 -3.11938477 42.08544922 C-2.86477642 39.87358545 -2.59791185 37.66342219 -2.33007812 35.453125 C-0.69194044 24.36221613 -0.69194044 24.36221613 -1.0546875 13.26953125 C-4.90723141 9.72935577 -7.67101632 9.34708379 -12.0546875 12.26953125 Z M62.96508789 179.70654297 C61.19283592 180.17735794 61.19283592 180.17735794 59.38478088 180.65768433 C58.11698288 181.00139069 56.84918488 181.34509705 55.54296875 181.69921875 C54.21940529 182.05364251 52.89570814 182.4075674 51.57188416 182.76101685 C48.80120636 183.50210656 46.03165717 184.24722667 43.26293945 184.99560547 C39.72613728 185.95155286 36.18751357 186.90052194 32.64812565 187.84684563 C29.2582502 188.75352731 25.86933137 189.66376022 22.48046875 190.57421875 C21.21469498 190.91387665 19.9489212 191.25353455 18.64479065 191.60348511 C17.46013718 191.92366608 16.2754837 192.24384705 15.05493164 192.57373047 C14.01744278 192.85352753 12.97995392 193.13332458 11.911026 193.42160034 C8.8896738 194.28543898 5.91882239 195.25417457 2.9453125 196.26953125 C3.5314844 202.19862631 4.74935631 207.58533391 6.5078125 213.26953125 C6.74177734 214.04425781 6.97574219 214.81898438 7.21679688 215.6171875 C7.78721288 217.50305265 8.36544053 219.38655215 8.9453125 221.26953125 C26.30932595 217.04498072 43.60301667 212.62158575 60.8203125 207.83203125 C61.61610718 207.61129944 62.41190186 207.39056763 63.23181152 207.16314697 C65.48869352 206.53613141 67.74457308 205.90566497 70 205.2734375 C70.67563995 205.08522934 71.35127991 204.89702118 72.0473938 204.70310974 C75.57819048 203.7064335 75.57819048 203.7064335 78.9453125 202.26953125 C78.36172175 193.95336313 76.20731836 186.25493799 73.9453125 178.26953125 C70.01757188 178.10362159 66.75520603 178.68943101 62.96508789 179.70654297 Z " fill="#000000" transform="translate(47.0546875,54.73046875)"></path><path d="M0 0 C1.99571001 1.48196288 3.98777147 2.96840936 5.97265625 4.46484375 C6.35035156 4.01753906 6.72804688 3.57023437 7.1171875 3.109375 C13.06465645 -3.4230909 21.007452 -7.96290917 29.97265625 -8.53515625 C30.69710937 -8.59703125 31.4215625 -8.65890625 32.16796875 -8.72265625 C42.00482472 -9.21604088 50.4124073 -5.89246316 57.90234375 0.4296875 C64.82262773 7.23245722 69.01681184 14.72491018 69.97265625 24.46484375 C69.59816114 37.12277832 64.88512297 45.88454534 56.3515625 54.91015625 C53.98948073 57.44677609 51.8225298 60.06947125 49.66015625 62.77734375 C45.24894226 68.23148925 40.53251979 73.34743511 35.75 78.47265625 C33.03619165 81.3832225 30.41525869 84.36496367 27.8125 87.375 C24.93982548 90.63801671 21.98946121 93.83027363 19.0324707 97.0168457 C15.72112822 100.59740303 12.59601302 104.28502299 9.60546875 108.13671875 C7.97265625 109.46484375 7.97265625 109.46484375 5.61328125 109.98046875 C1.78737922 109.23339912 0.25689631 107.2688562 -2.40234375 104.46484375 C-2.88711182 103.95864502 -3.37187988 103.45244629 -3.87133789 102.9309082 C-7.71933352 98.88406633 -11.42109418 94.72677506 -15.02734375 90.46484375 C-16.98307095 88.17094628 -18.94258095 85.88029368 -20.90234375 83.58984375 C-21.68206543 82.6769458 -21.68206543 82.6769458 -22.47753906 81.74560547 C-25.50633956 78.20821652 -28.57894089 74.72079575 -31.71484375 71.27734375 C-35.60211813 66.99642133 -39.26274665 62.56110427 -42.89453125 58.0625 C-44.80004627 55.74168042 -46.76397738 53.50424898 -48.77734375 51.27734375 C-56.46475208 42.53759878 -59.56485992 34.49802719 -59.3359375 22.7421875 C-58.51424959 14.01565388 -54.18880501 6.59226379 -48.02734375 0.46484375 C-32.38122516 -11.60962774 -15.96912796 -11.25301167 0 0 Z M-43.58984375 12.58984375 C-46.59577841 16.9667571 -47.20423 20.49487554 -47.27734375 25.77734375 C-47.303125 26.88722656 -47.32890625 27.99710938 -47.35546875 29.140625 C-46.68594213 35.92356725 -42.74480369 40.30951029 -38.40234375 45.21484375 C-37.86891357 45.82755127 -37.3354834 46.44025879 -36.78588867 47.0715332 C-32.96467029 51.44689981 -29.06699001 55.75186381 -25.16015625 60.05078125 C-22.93434771 62.57010301 -20.82123545 65.15756626 -18.71484375 67.77734375 C-14.76015604 72.66866802 -10.57387468 77.28549423 -6.28491211 81.88085938 C-2.75956235 85.65863311 0.6549099 89.50198006 3.97265625 93.46484375 C12.61177339 89.58759292 18.71604217 80.28467756 24.73046875 73.23046875 C25.74849795 72.03758973 26.76673311 70.84488646 27.78515625 69.65234375 C28.30207031 69.04664551 28.81898438 68.44094727 29.3515625 67.81689453 C32.55683269 64.07508129 35.82431713 60.40415949 39.16015625 56.77734375 C53.29594983 42.2959793 53.29594983 42.2959793 57.97265625 23.46484375 C56.87062093 16.96919323 54.01033561 11.72919514 48.97265625 7.46484375 C42.4317613 3.07829118 35.66400644 2.60559209 27.97265625 3.46484375 C22.41547433 4.65697849 18.53959701 7.0061678 14.97265625 11.46484375 C11.826977 16.57246233 10.29838195 21.65204645 8.97265625 27.46484375 C7.97265625 28.46484375 7.97265625 28.46484375 4.91015625 28.52734375 C3.94078125 28.50671875 2.97140625 28.48609375 1.97265625 28.46484375 C0.44355693 25.68238433 -0.30489572 23.34199975 -0.77734375 20.21484375 C-2.0814325 14.17223405 -4.90897616 9.69673991 -9.96484375 6.078125 C-21.42166936 0.07592776 -35.59536298 2.32205091 -43.58984375 12.58984375 Z " fill="#000000" transform="translate(145.02734375,19.53515625)"></path></svg>